<svg xmlns="http://www.w3.org/2000/svg" xmlns:xlink="http://www.w3.org/1999/xlink" viewBox="0 0 832.1 623.23"><defs><style>.cls-1{fill:url(#Degradado_sin_nombre_3);}.cls-2{fill:url(#Degradado_sin_nombre_3-2);}</style><radialGradient id="Degradado_sin_nombre_3" cx="679.36" cy="409.47" r="185.77" gradientUnits="userSpaceOnUse"><stop offset="0" stop-color="#fff"/><stop offset="0.09" stop-color="#fff"/><stop offset="0.97" stop-color="#c5c5c5"/></radialGradient><radialGradient id="Degradado_sin_nombre_3-2" cx="232.15" cy="311.61" r="274.77" xlink:href="#Degradado_sin_nombre_3"/></defs><g id="Capa_2" data-name="Capa 2"><g id="Capa_2-2" data-name="Capa 2"><path class="cls-1" d="M691.74,424.06l-16.08-22.79-5.55-7.89,33.15-41.62,2.43-3.06,121.83-153H664.43l-121,152a2.67,2.67,0,0,1-.3.34,74.25,74.25,0,0,0-16.53,45.39c-.29,17.19,5.29,35.19,17.17,52.16.07.11.14.22.23.34l.2.27a0,0,0,0,0,0,0c-.06-.1-.14-.18-.21-.28l24.66,35,4.8,6.81,48.37,68.62L669,623.23H832.1Z"/><path class="cls-2" d="M319.31,389.24c0,53.95-36,90.61-87.17,90.61-50.48,0-87.14-36.66-87.14-90.61V0H0V391.08C0,519.29,103.94,623.23,232.15,623.23h0c128.22,0,232.16-103.94,232.16-232.15V0h-145Z"/></g></g></svg>