<svg xmlns="http://www.w3.org/2000/svg" viewBox="0 0 965.39 893.77"><defs><style>.cls-1{fill:#00ff8e;}</style></defs><g id="Capa_2" data-name="Capa 2"><g id="Capa_2-2" data-name="Capa 2"><path class="cls-1" d="M777.83,804.29l-50.14-71.17L649.86,622.71c-.17-.23-.31-.44-.42-.62C636.8,604,630.3,584,630.64,564.26a84.28,84.28,0,0,1,18.7-51.44l.35-.44.12-.12,123.8-155.5H962.27L827.51,526l-2.41,3L796.6,564.8l17.31,24.55L965.39,804.29Zm110.43-40-107-151.89-16.07-22.78-18.51-26.3,47.15-59.19,2.39-3,83.1-104.36H792.89l-112.24,141-.35.42a44.55,44.55,0,0,0-9.67,26.76c-.19,11.3,3.87,23.21,11.74,34.45l.14.2,1.35,1.81.23.46,76.29,108.23,38.2,54.21Z"/><path class="cls-1" d="M789.66,572.33l-5.55-7.9,33.15-41.61,2.43-3.06,121.83-153H778.43l-121,152a3.84,3.84,0,0,1-.29.34,74.25,74.25,0,0,0-16.54,45.38c-.29,17.2,5.29,35.2,17.17,52.17.07.11.14.22.23.34l.2.27h0L658,617l24.66,35,4.8,6.8,48.37,68.63L783,794.29H946.1L805.74,595.12Zm3.73,202-41.18-58.45-48.37-68.63-4.8-6.8L675.49,607l-.17-.33-.91-1.22-.23-.32c-9.09-13-13.78-26.93-13.55-40.35a54.53,54.53,0,0,1,11.89-32.89l.31-.37.14-.17.14-.17,115-144.41H900L804,507.33l-2.41,3L768.47,552l-9.34,11.72L767.75,576l5.57,7.91,16.08,22.78L907.54,774.29Z"/><path class="cls-1" d="M346.16,804.29A242.17,242.17,0,0,1,104,562.13V161.06H269V560.3c0,47.46,31.72,80.61,77.15,80.61,46.15,0,77.16-32.39,77.16-80.61V161.06h165V562.13A242.17,242.17,0,0,1,346.16,804.29ZM144,562.13a202.16,202.16,0,1,0,404.31,0V201.06h-85V560.3c0,34.11-11.62,64.9-32.74,86.69s-51.18,33.92-84.42,33.92c-32.76,0-62.61-12.18-84-34.31S229,593.91,229,560.3V201.06H144Z"/><path class="cls-1" d="M433.31,560.3c0,54-36,90.61-87.16,90.61-50.49,0-87.15-36.66-87.15-90.61V171.06H114V562.13c0,128.22,103.94,232.16,232.16,232.16h0c128.21,0,232.15-103.94,232.15-232.16V171.06h-145Zm20-369.24h105V562.13a212.16,212.16,0,1,1-424.31,0V191.06H239V560.3c0,64.09,45.06,110.61,107.15,110.61,63.09,0,107.16-45.48,107.16-110.61Z"/><path class="cls-1" d="M726.73,119.3,846,0,965.34,119.3,846,238.61ZM846,182l62.74-62.74L846,56.57,783.3,119.3Z"/><path class="cls-1" d="M831.89,210.33,846,224.47l14.15-14.14,76.87-76.88,14.15-14.14-14.15-14.15L860.18,28.28,846,14.14,831.89,28.28,755,105.16l-14.14,14.15L755,133.45ZM846,42.43l76.88,76.88L846,196.18l-76.88-76.87Z"/><path class="cls-1" d="M0,815.56l78.21-78.22,78.22,78.22L78.21,893.77ZM78.21,837.2l21.65-21.64L78.21,793.91,56.57,815.56Z"/><path class="cls-1" d="M92.36,765.63,78.21,751.48,64.07,765.63,28.28,801.41,14.14,815.56,28.28,829.7l35.79,35.79,14.14,14.14,14.15-14.14,35.78-35.79,14.15-14.14-14.15-14.15ZM78.21,851.34,42.43,815.56l35.78-35.79L114,815.56Z"/></g></g></svg>