<svg xmlns="http://www.w3.org/2000/svg" xmlns:xlink="http://www.w3.org/1999/xlink" viewBox="0 0 2048.32 688.83"><defs><style>.cls-1{fill:url(#Degradado_sin_nombre_7);}.cls-2{fill:url(#Degradado_sin_nombre_7-2);}.cls-3{fill:url(#Degradado_sin_nombre_7-3);}.cls-4{fill:url(#Degradado_sin_nombre_7-4);}.cls-5{fill:url(#Degradado_sin_nombre_7-5);}.cls-6{fill:url(#Degradado_sin_nombre_7-6);}.cls-7{fill:url(#Degradado_sin_nombre_7-7);}.cls-8{fill:url(#Degradado_sin_nombre_7-8);}.cls-9{fill:url(#Degradado_sin_nombre_7-9);}.cls-10{fill:url(#Degradado_sin_nombre_7-10);}.cls-11{fill:url(#Degradado_sin_nombre_7-11);}.cls-12{fill:url(#Degradado_sin_nombre_7-12);}.cls-13{fill:url(#Degradado_sin_nombre_7-13);}.cls-14{fill:url(#Degradado_sin_nombre_7-14);}.cls-15{fill:url(#Degradado_sin_nombre_7-15);}</style><linearGradient id="Degradado_sin_nombre_7" x1="1127.98" y1="359.92" x2="1127.98" y2="195.7" gradientUnits="userSpaceOnUse"><stop offset="0.15"/><stop offset="0.29" stop-color="#030303"/><stop offset="1" stop-color="#2e2e2e"/></linearGradient><linearGradient id="Degradado_sin_nombre_7-2" x1="1264.34" y1="360.03" x2="1264.34" y2="235.52" xlink:href="#Degradado_sin_nombre_7"/><linearGradient id="Degradado_sin_nombre_7-3" x1="1388.91" y1="357.77" x2="1388.91" y2="236.17" xlink:href="#Degradado_sin_nombre_7"/><linearGradient id="Degradado_sin_nombre_7-4" x1="1495.96" y1="359.06" x2="1495.96" y2="209.23" xlink:href="#Degradado_sin_nombre_7"/><linearGradient id="Degradado_sin_nombre_7-5" x1="1568.62" y1="357.77" x2="1568.62" y2="236.17" xlink:href="#Degradado_sin_nombre_7"/><linearGradient id="Degradado_sin_nombre_7-6" x1="1663.01" y1="360.35" x2="1663.01" y2="236.17" xlink:href="#Degradado_sin_nombre_7"/><linearGradient id="Degradado_sin_nombre_7-7" x1="1860.88" y1="360.35" x2="1860.88" y2="197.85" xlink:href="#Degradado_sin_nombre_7"/><linearGradient id="Degradado_sin_nombre_7-8" x1="1984.3" y1="360.03" x2="1984.3" y2="235.52" xlink:href="#Degradado_sin_nombre_7"/><linearGradient id="Degradado_sin_nombre_7-9" x1="1148.6" y1="623.86" x2="1148.6" y2="396.6" xlink:href="#Degradado_sin_nombre_7"/><linearGradient id="Degradado_sin_nombre_7-10" x1="1360.3" y1="688.83" x2="1360.3" y2="453.34" xlink:href="#Degradado_sin_nombre_7"/><linearGradient id="Degradado_sin_nombre_7-11" x1="1558.71" y1="625.99" x2="1558.71" y2="453.34" xlink:href="#Degradado_sin_nombre_7"/><linearGradient id="Degradado_sin_nombre_7-12" x1="1760.66" y1="626.3" x2="1760.66" y2="396.6" xlink:href="#Degradado_sin_nombre_7"/><linearGradient id="Degradado_sin_nombre_7-13" x1="1954.85" y1="626.3" x2="1954.85" y2="451.2" xlink:href="#Degradado_sin_nombre_7"/><linearGradient id="Degradado_sin_nombre_7-14" x1="679.36" y1="623.23" x2="679.36" y2="195.7" xlink:href="#Degradado_sin_nombre_7"/><linearGradient id="Degradado_sin_nombre_7-15" x1="232.15" y1="623.23" x2="232.15" y2="0" xlink:href="#Degradado_sin_nombre_7"/></defs><g id="Capa_2" data-name="Capa 2"><g id="Capa_2-2" data-name="Capa 2"><path class="cls-1" d="M1085.74,352.19q13.1,7.72,30.91,7.73a70.46,70.46,0,0,0,23.94-4,74.89,74.89,0,0,0,20.61-11.21A79.84,79.84,0,0,0,1177.35,328a78.82,78.82,0,0,0,10.57-20.45h-15.35a55.26,55.26,0,0,1-8.42,15.08,61.32,61.32,0,0,1-12.72,12.13,59.16,59.16,0,0,1-16,8.05,58.23,58.23,0,0,1-18.25,2.84,45.23,45.23,0,0,1-22.7-5.63,39.21,39.21,0,0,1-15.62-16.8q-5.68-11.16-5.68-27.47a104.44,104.44,0,0,1,4.77-31.29,94.46,94.46,0,0,1,13.74-27.64,69.12,69.12,0,0,1,21.52-19.59,55.45,55.45,0,0,1,28.23-7.24,46.71,46.71,0,0,1,16.69,2.84,36.24,36.24,0,0,1,21,20.18,43.32,43.32,0,0,1,3.22,15.08h15.24a54.42,54.42,0,0,0-3.86-20.66,49.06,49.06,0,0,0-28.5-27.74,63.88,63.88,0,0,0-23.24-4q-19.32,0-34.77,8.54a83.23,83.23,0,0,0-26.35,22.91,108.17,108.17,0,0,0-16.69,32.31,118.68,118.68,0,0,0-5.8,36.7q0,19.65,7.14,34A51.66,51.66,0,0,0,1085.74,352.19Z"/><path class="cls-2" d="M1234.93,354.23q10.2,5.79,24.26,5.8a60.67,60.67,0,0,0,30-7.62,52.76,52.76,0,0,0,20.87-20.4l-13.2-4.4a41,41,0,0,1-15.35,14.12,44.41,44.41,0,0,1-21.57,5.31q-10.95,0-18.14-4.51a27.74,27.74,0,0,1-10.73-12.29,42.18,42.18,0,0,1-3.54-17.65,81.45,81.45,0,0,1,.48-8.82q20.4-.15,36.06-1.7,17.22-1.72,28.55-5.85t17-11.27q5.63-7.14,5.63-18a31,31,0,0,0-4.4-16.8,28.66,28.66,0,0,0-12.61-10.84q-8.21-3.81-19.48-3.81a56.79,56.79,0,0,0-25.7,5.91,64.91,64.91,0,0,0-20.77,16.42,77.28,77.28,0,0,0-13.85,24.52,90.32,90.32,0,0,0-4.94,30.22q0,14.6,5.64,25.22A40,40,0,0,0,1234.93,354.23Zm5.15-84.9a49.46,49.46,0,0,1,15.57-15q9.33-5.7,21.78-5.69,10.85,0,17.07,4.77t6.22,13.47q0,8.06-4.34,13.1t-13.47,7.78q-9.14,2.73-23.35,3.7-12.58.85-29.5.95.3-1.2.63-2.4A71.87,71.87,0,0,1,1240.08,269.33Z"/><path class="cls-3" d="M1362.55,283.39a40,40,0,0,1,39.81-33.91q13.53,0,20.13,8.26t4.13,23.08l-12.77,76.95h14.49l12.77-77.17q2.48-14.27-1.23-24.15a29,29,0,0,0-12.24-15.08q-8.54-5.2-21-5.2a47.84,47.84,0,0,0-25,6.87q-9,5.4-15.55,16.13l3.53-21.39h-14.06l-19.86,120h14.49Z"/><path class="cls-4" d="M1471.06,330.4q-2.26,13.85,4.5,21.68T1497,359a48.18,48.18,0,0,0,11-1.72l-.85-12.55c-1.29.28-2.71.55-4.24.8a24.77,24.77,0,0,1-3.81.38q-8.16.86-11.54-3.22t-1.88-13.2l13.12-79h24.66l2-12.66H1501l4.74-28.55h-14.59l-4.73,28.55h-17.92l-2.15,12.66h18Z"/><path class="cls-5" d="M1558.21,280.82A34.83,34.83,0,0,1,1565,265a38.26,38.26,0,0,1,30.43-14.81,44.33,44.33,0,0,1,5,.27c1.58.17,2.72.34,3.44.48l2.36-14.6c-1-.07-2.18-.12-3.54-.16s-2.61-.05-3.76-.05a42.27,42.27,0,0,0-21.09,5.53,38,38,0,0,0-15,14.75h-1.07l3.11-18.67H1550.8l-19.85,120h14.59Z"/><path class="cls-6" d="M1699.72,337.06a80,80,0,0,0,12.93-24.15,86.29,86.29,0,0,0,4.51-27.69q0-14.72-5.47-25.76a40.77,40.77,0,0,0-15.51-17.17q-10-6.12-23.88-6.12a53.6,53.6,0,0,0-26.08,6.38,63.79,63.79,0,0,0-20,17.12,81.55,81.55,0,0,0-12.83,24.15,85.91,85.91,0,0,0-4.5,27.48q0,14.7,5.47,25.76a40.83,40.83,0,0,0,15.51,17.17q10,6.12,23.77,6.12a54,54,0,0,0,26-6.28A63.88,63.88,0,0,0,1699.72,337.06Zm-45.78,10.09q-15.24,0-22.86-10.25t-7.62-25.82a73.73,73.73,0,0,1,3.38-21.94,71.06,71.06,0,0,1,9.72-19.92,50.55,50.55,0,0,1,15.29-14.43,38.17,38.17,0,0,1,20.13-5.42q10.18,0,17,4.72a29,29,0,0,1,10.2,12.94,47.84,47.84,0,0,1,3.43,18.62,73.48,73.48,0,0,1-3.32,21.57,71.66,71.66,0,0,1-9.61,19.91,50,50,0,0,1-15.29,14.54A38.52,38.52,0,0,1,1653.94,347.15Z"/><path class="cls-7" d="M1873.59,347a61.18,61.18,0,0,0,8.64-11.64h1.61L1880,357.77h14.17l26.51-159.92h-14.6l-10.52,63.33h-1.07a42.63,42.63,0,0,0-5.1-11.38,28.81,28.81,0,0,0-10.46-9.72q-6.87-3.92-18-3.91a48.05,48.05,0,0,0-25.17,6.65,61.2,61.2,0,0,0-18.84,17.71,84.61,84.61,0,0,0-11.75,24.63,95.88,95.88,0,0,0-4,27.43q0,21.78,11,34.77t30,13a41.44,41.44,0,0,0,18.41-3.81A43.81,43.81,0,0,0,1873.59,347Zm-29.24.17q-14.38,0-21.52-9.93t-7.14-25.39a80.45,80.45,0,0,1,3.11-21.94,73.77,73.77,0,0,1,9.07-20.18A48.88,48.88,0,0,1,1842.52,255a36,36,0,0,1,19.86-5.58q14.26,0,21.46,9.44t7.2,25a83.34,83.34,0,0,1-3.06,22,76,76,0,0,1-9,20.56,48.61,48.61,0,0,1-14.59,15.08A35.86,35.86,0,0,1,1844.35,347.15Z"/><path class="cls-8" d="M1954.9,354.23q10.18,5.79,24.25,5.8a60.61,60.61,0,0,0,30-7.62A52.85,52.85,0,0,0,2030,332l-13.2-4.4a41.06,41.06,0,0,1-15.35,14.12A44.45,44.45,0,0,1,1979.9,347q-10.94,0-18.13-4.51A27.7,27.7,0,0,1,1951,330.24a42.18,42.18,0,0,1-3.54-17.65,81.47,81.47,0,0,1,.49-8.82q20.38-.15,36.06-1.7,17.22-1.72,28.55-5.85t17-11.27q5.64-7.14,5.64-18a31.07,31.07,0,0,0-4.4-16.8,28.77,28.77,0,0,0-12.61-10.84q-8.22-3.81-19.48-3.81a56.86,56.86,0,0,0-25.71,5.91,64.91,64.91,0,0,0-20.77,16.42,77.26,77.26,0,0,0-13.84,24.52,90.32,90.32,0,0,0-4.94,30.22q0,14.6,5.63,25.22A40.05,40.05,0,0,0,1954.9,354.23Zm5.15-84.9a49.53,49.53,0,0,1,15.56-15,41,41,0,0,1,21.79-5.69q10.83,0,17.06,4.77t6.23,13.47q0,8.06-4.35,13.1t-13.47,7.78q-9.12,2.73-23.34,3.7-12.58.85-29.5.95c.2-.8.4-1.6.63-2.4A71.87,71.87,0,0,1,1960.05,269.33Z"/><path class="cls-9" d="M1203.35,623.86h58.27L1221.2,396.6h-72.14L1035.58,623.86h62.08l22.8-48.35H1196Zm-63.47-89.53,4.6-9.76q11.44-24.87,22.5-53,6.24-15.9,12.67-32.33,1.3,16.63,2.73,32.71,2.52,28.21,5.87,52.62l1.49,9.76Z"/><path class="cls-10" d="M1367.92,536.77q-8.24,16.77-15.25,34.16-2.1,5.21-4.22,10.63c-.07-3.56-.11-7.06-.13-10.47a266.21,266.21,0,0,0-2.36-34.32l-11.74-83.43h-54.91l35.38,170.82-1.06,7.17a16.69,16.69,0,0,1-5.19,11.14,22.08,22.08,0,0,1-12,5.41,41.53,41.53,0,0,1-16.78-1.3l-6.4-1.83-18.3,38.9a68.87,68.87,0,0,0,14.41,3.73,112.13,112.13,0,0,0,18.38,1.45q19.36,0,33.4-6a73.66,73.66,0,0,0,24.25-16.63A112,112,0,0,0,1363,641.86l102.65-188.52H1409Z"/><path class="cls-11" d="M1580.69,550.65a41.92,41.92,0,0,1-6.56,17,32.53,32.53,0,0,1-27.76,14.57q-13.11,0-19.06-8.16t-3.66-22.5l16.16-98.22h-53.23l-17.84,108.59q-3.21,19.23,1.75,33.71a42.51,42.51,0,0,0,16.93,22.42q12,7.94,29.82,7.93,22.42,0,37.83-12.35A87.72,87.72,0,0,0,1576.92,587l-5.23,36.84h50l28.21-170.52H1596.7Z"/><path class="cls-12" d="M1790.71,484.15h-1.52a46.48,46.48,0,0,0-7-15.41,39.72,39.72,0,0,0-14.49-12.58q-9.3-4.95-23.64-5-19.68,0-34.78,9.31a81.92,81.92,0,0,0-25.47,25,121.43,121.43,0,0,0-15.63,34.78,144.29,144.29,0,0,0-5.26,38.58q0,33.11,16.47,50.26T1721,626.3a57.68,57.68,0,0,0,21.89-3.89,52.34,52.34,0,0,0,16.62-10.68,59.71,59.71,0,0,0,11.67-15.48h2.13l-5,27.61h52.47l37.67-227.26h-53.08Zm-8.77,59.18a77,77,0,0,1-8.46,20.43A49.19,49.19,0,0,1,1759.6,579a32.33,32.33,0,0,1-19.07,5.79q-11.74,0-17.46-7.78t-5.72-21.2a87.89,87.89,0,0,1,2.74-21.35,79.45,79.45,0,0,1,8.24-20.51,47.12,47.12,0,0,1,13.73-15.33,32.55,32.55,0,0,1,19.21-5.8q11.6,0,17.54,7.7t6,21.28A86.27,86.27,0,0,1,1781.94,543.33Z"/><path class="cls-13" d="M1995.39,453.34l-4.88,29.28h-1.22a44,44,0,0,0-6.86-15,37.51,37.51,0,0,0-13.88-11.82q-8.85-4.57-22.42-4.58-17.85,0-35,9.38t-29.89,28.75q-12.74,19.38-17.77,49.42-4.73,28.83,1.3,48.35t19.9,29.36q13.88,9.84,32.8,9.84a59.17,59.17,0,0,0,23.1-4.27,61.49,61.49,0,0,0,17.69-11.14,62.8,62.8,0,0,0,12.13-14.64h1.68l-4.58,27.61h52.62l28.22-170.52Zm-13.27,85.41a75.42,75.42,0,0,1-7.62,24.18A45.63,45.63,0,0,1,1960.85,579a31,31,0,0,1-18.38,5.79q-10.23,0-16.4-5.72t-8.16-16.16q-2-10.45.31-24.18a79.27,79.27,0,0,1,7.7-24.17,44.77,44.77,0,0,1,13.42-16,30.84,30.84,0,0,1,18.38-5.72q10.21,0,16.47,5.57t8.31,15.86Q1984.57,524.58,1982.12,538.75Z"/><path class="cls-14" d="M691.74,424.06l-16.08-22.79-5.55-7.89,33.15-41.62,2.43-3.06,121.83-153H664.43l-121,152a2.67,2.67,0,0,1-.3.34,74.25,74.25,0,0,0-16.53,45.39c-.29,17.19,5.29,35.19,17.17,52.16.07.11.14.22.23.34l.2.27a0,0,0,0,0,0,0c-.06-.1-.14-.18-.21-.28l24.66,35,4.8,6.81,48.37,68.62L669,623.23H832.1Z"/><path class="cls-15" d="M319.31,389.24c0,53.95-36,90.61-87.17,90.61-50.48,0-87.14-36.66-87.14-90.61V0H0V391.08C0,519.29,103.94,623.23,232.15,623.23h0c128.22,0,232.16-103.94,232.16-232.15V0h-145Z"/></g></g></svg>