<svg xmlns="http://www.w3.org/2000/svg" xmlns:xlink="http://www.w3.org/1999/xlink" viewBox="0 0 2202.58 623.23"><defs><style>.cls-1{fill:#aa00c9;}.cls-2{fill:url(#Degradado_sin_nombre_18);}</style><linearGradient id="Degradado_sin_nombre_18" y1="311.61" x2="2202.58" y2="311.61" gradientUnits="userSpaceOnUse"><stop offset="0" stop-color="#fff"/><stop offset="0.09" stop-color="#fff"/><stop offset="1" stop-color="#c5c5c5"/></linearGradient></defs><g id="Capa_2" data-name="Capa 2"><g id="Capa_2-2" data-name="Capa 2"><path class="cls-1" d="M319.31,389.24c0,53.95-36,90.61-87.17,90.61-50.48,0-87.14-36.66-87.14-90.61V0H0V391.08C0,519.29,103.94,623.23,232.15,623.23h0c128.22,0,232.16-103.94,232.16-232.15V0h-145Z"/><path class="cls-1" d="M1195.47,177.88c-56.19,0-104.11,21.49-138.81,58.67V1.9H922V623.23h134.68V567.81c33.61,35.71,81.11,55.42,138.81,55.42,116.5,0,200-91.71,200-223.09S1312,177.88,1195.47,177.88Zm-37.18,330.5c-60.32,0-104.11-43.79-104.11-108.24s43-108.23,104.11-108.23S1262.4,335.7,1262.4,400.14,1219.43,508.38,1158.29,508.38Z"/><path class="cls-1" d="M1555.06,1.9c-47.28,0-80.51,33.87-80.51,83.7s33.88,83.71,80.51,83.71c47.3,0,80.53-33.87,80.53-83.71S1602.36,1.9,1555.06,1.9Z"/><rect class="cls-1" x="1487.73" y="229.09" width="134.68" height="394.13"/><rect class="cls-1" x="1726.03" y="1.9" width="134.68" height="621.33"/><path class="cls-1" d="M2062.65,424.67l-16-22.73-5.54-7.86,33.05-41.49,2.42-3.06L2198,197H2035.42l-120.6,151.48c-.12.14-.21.25-.3.34A74,74,0,0,0,1898,394.08c-.29,17.13,5.27,35.09,17.12,52a2.77,2.77,0,0,0,.22.34l.21.27v0c-.07-.1-.15-.18-.21-.28L1940,481.31l4.78,6.78L1993,556.51l47,66.72h162.59Z"/><path class="cls-1" d="M758.63,177.89c-47.29,0-80.51,33.87-80.51,83.7v-83.7H543.44V623.23H678.12v-227c0-49.84,33.22-83.71,80.51-83.71h84.22V177.89Z"/><path class="cls-2" d="M319.31,389.24c0,53.95-36,90.61-87.17,90.61-50.48,0-87.14-36.66-87.14-90.61V0H0V391.08C0,519.29,103.94,623.23,232.15,623.23h0c128.22,0,232.16-103.94,232.16-232.15V0h-145Z"/><path class="cls-2" d="M1195.47,177.88c-56.19,0-104.11,21.49-138.81,58.67V1.9H922V623.23h134.68V567.81c33.61,35.71,81.11,55.42,138.81,55.42,116.5,0,200-91.71,200-223.09S1312,177.88,1195.47,177.88Zm-37.18,330.5c-60.32,0-104.11-43.79-104.11-108.24s43-108.23,104.11-108.23S1262.4,335.7,1262.4,400.14,1219.43,508.38,1158.29,508.38Z"/><path class="cls-2" d="M1555.06,1.9c-47.28,0-80.51,33.87-80.51,83.7s33.88,83.71,80.51,83.71c47.3,0,80.53-33.87,80.53-83.71S1602.36,1.9,1555.06,1.9Z"/><rect class="cls-2" x="1487.73" y="229.09" width="134.68" height="394.13"/><rect class="cls-2" x="1726.03" y="1.9" width="134.68" height="621.33"/><path class="cls-2" d="M2062.65,424.67l-16-22.73-5.54-7.86,33.05-41.49,2.42-3.06L2198,197H2035.42l-120.6,151.48c-.12.14-.21.25-.3.34A74,74,0,0,0,1898,394.08c-.29,17.13,5.27,35.09,17.12,52a2.77,2.77,0,0,0,.22.34l.21.27v0c-.07-.1-.15-.18-.21-.28L1940,481.31l4.78,6.78L1993,556.51l47,66.72h162.59Z"/><path class="cls-2" d="M758.63,177.89c-47.29,0-80.51,33.87-80.51,83.7v-83.7H543.44V623.23H678.12v-227c0-49.84,33.22-83.71,80.51-83.71h84.22V177.89Z"/></g></g></svg>